<?xml version="1.0" encoding="UTF-8"?>
<svg version="1.1" xmlns="http://www.w3.org/2000/svg" width="452" height="434">
<path d="M0 0 C0.99 0.33 1.98 0.66 3 1 C5.757403 1.09712392 8.48877201 1.13995633 11.24609375 1.1328125 C12.05361588 1.13376923 12.861138 1.13472595 13.69313049 1.13571167 C15.40032021 1.13639188 17.10751252 1.13454868 18.81469727 1.13037109 C21.42405024 1.12502754 24.03323055 1.13031786 26.64257812 1.13671875 C28.30208371 1.1360578 29.96158919 1.1347763 31.62109375 1.1328125 C32.40036728 1.13483673 33.17964081 1.13686096 33.98252869 1.13894653 C37.49299192 1.12380449 40.62278559 0.94267837 44 0 C44.495 0.99 44.495 0.99 45 2 C45.82565964 1.98667633 45.82565964 1.98667633 46.66799927 1.9730835 C52.41072172 1.88440709 58.15324883 1.82418197 63.89648438 1.78027344 C66.03816634 1.76019112 68.1797937 1.73291963 70.32128906 1.69824219 C73.40443415 1.64957602 76.48685262 1.6269971 79.5703125 1.609375 C80.52366486 1.58872986 81.47701721 1.56808472 82.45925903 1.54681396 C88.28828944 1.54485824 91.55486051 2.12659711 96 6 C97.85714672 9.71429344 97.44347927 13.94622471 97 18 C94.60433564 22.88346966 91.22433343 25.73574235 87 29 C87.37511719 29.65484375 87.75023437 30.3096875 88.13671875 30.984375 C92.72468306 39.1664373 97.42049128 47.65881938 99 57 C99.66 57 100.32 57 101 57 C101.11165497 56.45073853 101.22330994 55.90147705 101.33834839 55.33557129 C102.49612589 49.86238834 104.00536946 44.63135993 105.8203125 39.34375 C106.3612042 37.72804095 106.90155248 36.1121499 107.44140625 34.49609375 C108.2826868 31.99287896 109.12798815 29.49126686 109.98291016 26.99267578 C110.81592185 24.55112281 111.63171808 22.10433078 112.4453125 19.65625 C112.70152374 18.92160522 112.95773499 18.18696045 113.22171021 17.43005371 C115.08482396 11.76374815 115 8.39661352 115 2 C122.92 2 130.84 2 139 2 C139 4.97 139 7.94 139 11 C139.42102982 13.79970733 139.42102982 13.79970733 140.16162109 16.28857422 C140.54234268 17.68449295 140.54234268 17.68449295 140.93075562 19.10861206 C141.20884064 20.08081696 141.48692566 21.05302185 141.7734375 22.0546875 C142.05724274 23.07805206 142.34104797 24.10141663 142.63345337 25.15579224 C143.23160263 27.30363684 143.83532172 29.44993737 144.44433594 31.59472656 C145.37713385 34.8825211 146.2914722 38.17503666 147.203125 41.46875 C147.78799179 43.56019555 148.37389297 45.65135217 148.9609375 47.7421875 C149.37199234 49.21871292 149.37199234 49.21871292 149.79135132 50.72506714 C150.05147003 51.63676666 150.31158875 52.54846619 150.57958984 53.48779297 C150.80609222 54.28893524 151.0325946 55.09007751 151.26596069 55.91549683 C151.99528491 58.26034115 151.99528491 58.26034115 154 61 C154.07586651 53.34625576 154.12852217 45.69260793 154.16479492 38.03857422 C154.17991108 35.43306861 154.20040432 32.82758856 154.22631836 30.22216797 C154.26257688 26.48398544 154.27969798 22.74613835 154.29296875 19.0078125 C154.30845261 17.83695099 154.32393646 16.66608948 154.33988953 15.45974731 C154.34011612 14.37877777 154.34034271 13.29780823 154.34057617 12.18408203 C154.34723801 11.22921906 154.35389984 10.27435608 154.36076355 9.29055786 C154.24171158 8.53467377 154.12265961 7.77878967 154 7 C153.01 6.34 152.02 5.68 151 5 C151 4.01 151 3.02 151 2 C161.56 2 172.12 2 183 2 C182.67 4.31 182.34 6.62 182 9 C182.6131154 11.09894642 182.6131154 11.09894642 183.87109375 12.74609375 C184.48500977 13.6597168 184.48500977 13.6597168 185.11132812 14.59179688 C185.54896484 15.20087891 185.98660156 15.80996094 186.4375 16.4375 C187.0881543 17.39172852 187.0881543 17.39172852 187.75195312 18.36523438 C188.81724464 19.9221989 189.90630365 21.46285562 191 23 C191.10823773 20.75106046 191.18569645 18.50062425 191.25 16.25 C191.29640625 14.99703125 191.3428125 13.7440625 191.390625 12.453125 C190.93348094 8.41197149 189.96955222 7.5954354 187 5 C187 4.01 187 3.02 187 2 C192.61 2 198.22 2 204 2 C203 6 203 6 201 8 C200.68678125 10.33051608 200.68678125 10.33051608 200.7253418 13.06054688 C200.71580978 14.11504028 200.70627777 15.16953369 200.69645691 16.25598145 C200.69736832 17.39869507 200.69827972 18.54140869 200.69921875 19.71875 C200.69279106 21.47197571 200.69279106 21.47197571 200.68623352 23.26062012 C200.68048243 25.73542634 200.67999566 28.21024948 200.68432617 30.68505859 C200.68748697 34.48434077 200.66403261 38.28284541 200.63867188 42.08203125 C200.63639917 44.48176985 200.63569525 46.88151055 200.63671875 49.28125 C200.62290413 50.99532043 200.62290413 50.99532043 200.60881042 52.74401855 C200.61503922 53.79851196 200.62126801 54.85300537 200.62768555 55.93945312 C200.62705612 56.8705188 200.6264267 57.80158447 200.6257782 58.76086426 C200.74927139 59.49977905 200.87276459 60.23869385 201 61 C201.99 61.66 202.98 62.32 204 63 C204 64.32 204 65.64 204 67 C198.39 67 192.78 67 187 67 C187 65.68 187 64.36 187 63 C187.99 62.34 188.98 61.68 190 61 C190.56590126 56.49766468 189.81807753 53.96286549 187.3125 50.25 C186.68085938 49.30898437 186.04921875 48.36796875 185.3984375 47.3984375 C181.92333062 42.4352953 178.3759187 37.52183677 174.79614258 32.63378906 C171.05097097 27.51472634 167.47764343 22.30440286 164 17 C163.97530146 22.92651057 163.95714069 28.85299125 163.94506836 34.77954102 C163.94003618 36.79614789 163.93320986 38.8127511 163.92456055 40.8293457 C163.91244627 43.72608339 163.90676057 46.62277288 163.90234375 49.51953125 C163.89718246 50.42274612 163.89202118 51.325961 163.88670349 52.25654602 C163.88662796 53.09719101 163.88655243 53.937836 163.88647461 54.80395508 C163.884254 55.54341873 163.88203339 56.28288239 163.87974548 57.04475403 C163.92910884 59.21631658 163.92910884 59.21631658 165 62 C165.66 62.33 166.32 62.66 167 63 C167 64.32 167 65.64 167 67 C154.13 67 141.26 67 128 67 C128 65.68 128 64.36 128 63 C128.515625 62.566875 129.03125 62.13375 129.5625 61.6875 C131.33028504 59.96445634 131.33028504 59.96445634 131.125 56.8125 C129.60320075 51.65529143 127.15520506 48.39762624 123 45 C120.06471779 43.60446171 117.1715902 42.69041419 114 42 C112.09579269 48.80074041 110.59149447 54.91923749 111 62 C111.66 62.33 112.32 62.66 113 63 C113 64.32 113 65.64 113 67 C101.12 67 89.24 67 77 67 C77 65.68 77 64.36 77 63 C77.99 63 78.98 63 80 63 C77.93157422 53.8429067 73.55166014 46.1086582 69 38 C68.67 38 68.34 38 68 38 C67.97106068 41.62498334 67.95322208 45.24993713 67.9375 48.875 C67.92493164 50.42380859 67.92493164 50.42380859 67.91210938 52.00390625 C67.90727539 53.48310547 67.90727539 53.48310547 67.90234375 54.9921875 C67.89448853 56.35899658 67.89448853 56.35899658 67.88647461 57.75341797 C67.85114435 60.03687509 67.85114435 60.03687509 69 62 C70.485 62.495 70.485 62.495 72 63 C72 64.32 72 65.64 72 67 C63.09 67 54.18 67 45 67 C45 65.68 45 64.36 45 63 C45.99 62.34 46.98 61.68 48 61 C48.94808604 58.15574188 49.13143645 56.37421001 49.14526367 53.42431641 C49.15164352 52.49970612 49.15802338 51.57509583 49.16459656 50.62246704 C49.16570938 49.62556854 49.1668222 48.62867004 49.16796875 47.6015625 C49.17129715 46.5744516 49.17462555 45.5473407 49.17805481 44.48910522 C49.1831194 42.31533252 49.18546328 40.14155204 49.18530273 37.96777344 C49.18748682 34.64505158 49.20564103 31.32266299 49.22460938 28 C49.22754387 25.88802197 49.22952829 23.77604236 49.23046875 21.6640625 C49.23765427 20.67121246 49.24483978 19.67836243 49.25224304 18.65542603 C49.307067 12.07403233 49.307067 12.07403233 47 6 C46.34 5.67 45.68 5.34 45 5 C45.99 10.94 46.98 16.88 48 23 C47.01 23.33 46.02 23.66 45 24 C44.6596875 23.32453125 44.319375 22.6490625 43.96875 21.953125 C43.4840625 21.06109375 42.999375 20.1690625 42.5 19.25 C42.0359375 18.36828125 41.571875 17.4865625 41.09375 16.578125 C38.99022726 13.9879664 37.79925325 13.23144722 34.86914062 11.83886719 C34.14553345 11.49088074 33.42192627 11.14289429 32.6763916 10.78436279 C32.12318237 10.52552307 31.56997314 10.26668335 31 10 C31.11740401 17.08427403 31.24223867 24.16838878 31.37231445 31.25244141 C31.4157065 33.66386931 31.45737837 36.07532879 31.49731445 38.48681641 C31.55491369 41.94703706 31.61863779 45.40709812 31.68359375 48.8671875 C31.70030624 49.95055389 31.71701874 51.03392029 31.73423767 52.15011597 C31.7641555 53.65144577 31.7641555 53.65144577 31.79467773 55.18310547 C31.81799416 56.50881058 31.81799416 56.50881058 31.84178162 57.86129761 C31.86765001 60.0519722 31.86765001 60.0519722 33 62 C35.02463255 62.65213292 35.02463255 62.65213292 37 63 C37 64.32 37 65.64 37 67 C27.1 67 17.2 67 7 67 C7 65.68 7 64.36 7 63 C7.81041748 62.65412842 8.62083496 62.30825684 9.45581055 61.9519043 C12.18151918 60.2938893 12.18151918 60.2938893 12.48574829 57.80654907 C12.67741849 54.7860005 12.71807087 51.79624001 12.70703125 48.76953125 C12.72215256 47.66397385 12.73727386 46.55841644 12.75285339 45.4193573 C12.79588773 41.88353327 12.80458398 38.34856034 12.8125 34.8125 C12.83563192 32.41729483 12.86099451 30.02211008 12.88867188 27.62695312 C12.9516796 21.75129416 12.98648895 15.87596991 13 10 C6.11240832 12.86326388 2.85485747 14.93697887 -0.3125 21.875 C-0.539375 22.57625 -0.76625 23.2775 -1 24 C-1.99 23.67 -2.98 23.34 -4 23 C-2.96324187 15.24637268 -1.83622588 7.60722152 0 0 Z M67 12 C66.72345612 13.93681136 66.72345612 13.93681136 66.8046875 16.1328125 C66.81113281 16.93847656 66.81757812 17.74414062 66.82421875 18.57421875 C66.84097656 19.41597656 66.85773438 20.25773437 66.875 21.125 C66.88402344 21.97449219 66.89304687 22.82398438 66.90234375 23.69921875 C66.92594353 25.79959884 66.96181517 27.89983444 67 30 C71.53184323 27.80616165 74.90495286 26.06777625 78 22 C78.86550348 18.98401243 79.37478393 16.12710341 79 13 C77.80705162 11.17160216 77.80705162 11.17160216 76 10 C70.96458118 9.37014553 70.96458118 9.37014553 67 12 Z M121 18 C120.3299166 20.12392506 119.66403203 22.24917524 119 24.375 C118.62875 25.55835938 118.2575 26.74171875 117.875 27.9609375 C116.90777394 30.79323439 116.90777394 30.79323439 117 33 C119.97 33.99 122.94 34.98 126 36 C124.82307733 29.94725482 123.54736698 23.9684155 122 18 C121.67 18 121.34 18 121 18 Z " fill="#CB0017" transform="translate(61,142)"/>
<path d="M0 0 C3.85933903 0.19296695 7.29131128 0.23622957 11 -1 C11.66 6.59 12.32 14.18 13 22 C12.01 22.33 11.02 22.66 10 23 C9.70867187 22.39671875 9.41734375 21.7934375 9.1171875 21.171875 C5.78737013 14.67977825 3.08118987 11.36039662 -4 9 C-9.59616939 8.54508128 -9.59616939 8.54508128 -14.75 10.375 C-20.918258 17.571301 -22.27862318 26.74971044 -22 36 C-20.9861629 42.87255945 -18.75586548 49.78512337 -14 55 C-11.06828901 57.00937495 -8.29462724 58 -4.6875 58 C-2.0805872 56.45516279 -1.86522258 54.90520858 -1 52 C-0.73840879 48.76651313 -0.76608127 45.55448189 -0.8125 42.3125 C-0.81314453 41.44560547 -0.81378906 40.57871094 -0.81445312 39.68554688 C-0.70023574 35.19058239 -0.70023574 35.19058239 -2 31 C-2.99 30.67 -3.98 30.34 -5 30 C-5 28.68 -5 27.36 -5 26 C3.91 26 12.82 26 22 26 C21 30 21 30 18 32 C16.99369137 35.01892589 16.87102 37.06296176 16.8671875 40.21875 C16.86589844 41.23324219 16.86460937 42.24773437 16.86328125 43.29296875 C16.86908203 44.88044922 16.86908203 44.88044922 16.875 46.5 C16.87113281 47.55832031 16.86726563 48.61664063 16.86328125 49.70703125 C16.86521484 51.22876953 16.86521484 51.22876953 16.8671875 52.78125 C16.86887939 54.1744043 16.86887939 54.1744043 16.87060547 55.59570312 C16.90142266 58.14558182 16.90142266 58.14558182 18 61 C19.65 61 21.3 61 23 61 C24.27469407 58.45061185 24.12016184 56.66959002 24.11352539 53.81591797 C24.11344986 52.73494843 24.11337433 51.65397888 24.11329651 50.54025269 C24.10813522 49.36939117 24.10297394 48.19852966 24.09765625 46.9921875 C24.0962413 45.79643097 24.09482635 44.60067444 24.09336853 43.36868286 C24.08775663 39.53743013 24.07520208 35.70623516 24.0625 31.875 C24.05748653 29.28255293 24.05292336 26.69010494 24.04882812 24.09765625 C24.03778333 17.73175102 24.02103359 11.36587963 24 5 C23.01 4.67 22.02 4.34 21 4 C21 3.01 21 2.02 21 1 C43.275 0.505 43.275 0.505 66 0 C69 16 69 16 69 23 C68.01 23 67.02 23 66 23 C65.4121875 21.4221875 65.4121875 21.4221875 64.8125 19.8125 C62.82470101 15.20229953 60.05328743 12.13471148 55.625 9.6875 C52.30064666 8.81683603 49.42088306 8.74182015 46 9 C43.50494038 11.49505962 43.64051624 12.67328888 43.375 16.125 C43.189375 18.538125 43.189375 18.538125 43 21 C46.63 20.67 50.26 20.34 54 20 C54.33 18.02 54.66 16.04 55 14 C55.99 14 56.98 14 58 14 C58.50579714 17.04080421 59.00480759 20.08246646 59.5 23.125 C59.64308594 23.9809375 59.78617187 24.836875 59.93359375 25.71875 C60.65695734 30.19671505 61.17918816 34.44563435 61 39 C60.01 39 59.02 39 58 39 C56.96484375 37.3203125 56.96484375 37.3203125 55.9375 35.125 C54.36288976 32.36243664 53.58314639 31.19804537 50.52563477 30.15966797 C49.18456665 29.95301514 49.18456665 29.95301514 47.81640625 29.7421875 C46.9147876 29.59378418 46.01316895 29.44538086 45.08422852 29.29248047 C44.39643311 29.19596191 43.7086377 29.09944336 43 29 C43.05183668 33.0843728 43.1469071 37.16662471 43.25 41.25 C43.26417969 42.40886719 43.27835937 43.56773437 43.29296875 44.76171875 C43.32519531 45.87675781 43.35742188 46.99179688 43.390625 48.140625 C43.4220459 49.68024902 43.4220459 49.68024902 43.45410156 51.25097656 C44.13075945 54.6584756 45.30980737 55.8680663 48 58 C52.80738404 58.88557074 57.22457276 57.23234157 61.1875 54.5625 C65.69534111 50.86769636 68.33391612 46.1099941 71 41 C72.485 41.495 72.485 41.495 74 42 C70.535 54.375 70.535 54.375 67 67 C56.59422578 66.91430416 46.18861116 66.82045389 35.78304386 66.71247292 C30.95068768 66.66264771 26.11835191 66.61631698 21.28588867 66.578125 C16.61736207 66.54109752 11.94901217 66.49469136 7.28063774 66.44193649 C5.50460363 66.42348494 3.72853177 66.40834335 1.95244026 66.39665604 C-0.54612989 66.3796343 -3.04430343 66.35056319 -5.54272461 66.31884766 C-6.26777695 66.31668747 -6.99282928 66.31452728 -7.73985291 66.31230164 C-14.64567377 66.20120355 -21.83733161 65.34875544 -27.6875 61.4375 C-28.37199219 61.00308594 -29.05648438 60.56867188 -29.76171875 60.12109375 C-36.03819991 54.17322417 -38.50993496 49.13823513 -38.796875 40.52734375 C-38.82743677 38.14291882 -38.81970313 35.76396531 -38.78222656 33.37963867 C-38.75000234 30.93767767 -38.78203346 28.50230814 -38.8203125 26.06054688 C-38.86043453 11.83214809 -38.86043453 11.83214809 -33.62646484 6.33764648 C-31.48230023 4.57423041 -29.47927978 3.19441778 -26.9375 2.0625 C-26.12152344 1.68222656 -25.30554688 1.30195313 -24.46484375 0.91015625 C-16.55629203 -2.01011721 -8.17393992 -1.45314487 0 0 Z " fill="#CA0017" transform="translate(300,143)"/>
<path d="M0 0 C7.70460661 -0.07620909 15.4091156 -0.12866692 23.11401367 -0.16479492 C25.73384229 -0.17985979 28.35364578 -0.20031554 30.97338867 -0.22631836 C34.74404105 -0.26280162 38.51435926 -0.27974988 42.28515625 -0.29296875 C43.45208511 -0.30845261 44.61901398 -0.32393646 45.82130432 -0.33988953 C53.23066874 -0.34141496 58.71625756 -0.02449961 64.375 5.1875 C66.91110556 9.57691348 67.52093497 13.44229471 66.5234375 18.33984375 C64.08993627 26.37574617 59.81898863 30.41029612 53 35 C53.3403125 35.59683594 53.680625 36.19367188 54.03125 36.80859375 C72 68.97074468 72 68.97074468 72 78 C73.98 78.495 73.98 78.495 76 79 C76 80.32 76 81.64 76 83 C64.45 83 52.9 83 41 83 C41 81.68 41 80.36 41 79 C42.98 78.505 42.98 78.505 45 78 C43.43245675 71.35426977 40.89219685 65.2820927 38 59.125 C37.65582031 58.38773682 37.31164062 57.65047363 36.95703125 56.89086914 C35.23512558 53.28830932 33.44993503 50.16960344 31 47 C31 46.34 31 45.68 31 45 C30.01 45.495 30.01 45.495 29 46 C28.92579789 50.07502794 28.8713743 54.14979392 28.83520508 58.2253418 C28.82012603 59.61147919 28.7996595 60.99756894 28.77368164 62.38354492 C28.73726284 64.37658146 28.72186982 66.36996723 28.70703125 68.36328125 C28.6913208 69.56251221 28.67561035 70.76174316 28.65942383 71.99731445 C28.74077468 74.98134471 28.74077468 74.98134471 30.39331055 76.85229492 C32.00891221 78.06945234 32.00891221 78.06945234 34 79 C34 80.32 34 81.64 34 83 C22.78 83 11.56 83 0 83 C0 81.68 0 80.36 0 79 C1.29735507 77.95374591 2.63266972 76.95298777 4 76 C5.08423785 72.74728644 5.1269135 70.37791985 5.12939453 66.95556641 C5.13412277 65.08815292 5.13412277 65.08815292 5.13894653 63.18301392 C5.13715624 61.82252975 5.13510516 60.46204591 5.1328125 59.1015625 C5.13348628 57.70535261 5.13445693 56.30914284 5.13571167 54.91293335 C5.13718612 51.98588952 5.13504285 49.05887622 5.13037109 46.13183594 C5.12468451 42.38711925 5.1279476 38.64247442 5.13394356 34.89776039 C5.137565 32.01351383 5.13640312 29.12928416 5.13381577 26.24503708 C5.13315033 24.86479051 5.13396149 23.48454239 5.13629532 22.10429764 C5.13884662 20.17060629 5.13426591 18.23690955 5.12939453 16.30322266 C5.12859894 15.2041861 5.12780334 14.10514954 5.12698364 12.97280884 C5.00865873 10.20270923 4.62949373 7.69507983 4 5 C2.68 4.67 1.36 4.34 0 4 C0 2.68 0 1.36 0 0 Z M29.3034668 11.19067383 C27.52393804 13.66081573 27.65689579 15.29937934 27.70703125 18.32421875 C27.71669922 19.35224609 27.72636719 20.38027344 27.73632812 21.43945312 C27.76146484 22.51130859 27.78660156 23.58316406 27.8125 24.6875 C27.82603516 25.77095703 27.83957031 26.85441406 27.85351562 27.97070312 C27.88889357 30.64763405 27.93825811 33.32356838 28 36 C35.52984313 32.49876944 40.23689375 29.2608401 43.5 21.375 C44.04782916 17.67715317 43.93443048 16.1654317 42 13 C39.48655605 10.30037502 38.16062282 10.01690767 34.4375 9.625 C31.12832446 9.70638881 31.12832446 9.70638881 29.3034668 11.19067383 Z " fill="#CB0017" transform="translate(369,143)"/>
<path d="M0 0 C3.04058791 1.03169955 3.04058791 1.03169955 5.5625 -0.125 C6.3359375 -0.681875 6.3359375 -0.681875 7.125 -1.25 C7.28835585 3.98419357 6.73052037 8.61306192 5.625 13.6875 C5.48191406 14.37134766 5.33882812 15.05519531 5.19140625 15.75976562 C4.84216229 17.42449514 4.48447054 19.08744875 4.125 20.75 C3.36832031 19.99074219 2.61164062 19.23148438 1.83203125 18.44921875 C-5.70277457 10.58478067 -5.70277457 10.58478067 -15.875 7.75 C-19.7333043 8.47811034 -22.88290617 9.50988272 -25.375 12.625 C-26.25804971 16.37796126 -26.09368251 19.09395246 -24.875 22.75 C-23.08922709 23.65667437 -23.08922709 23.65667437 -20.88671875 24.22265625 C-16.06901305 25.68808543 -11.38680229 27.38069239 -6.6875 29.1875 C-5.91986328 29.47431641 -5.15222656 29.76113281 -4.36132812 30.05664062 C3.18765564 32.96109111 9.51591898 36.41880918 13.20703125 43.9609375 C15.58614738 51.18940098 15.28581492 60.32174911 12.125 67.25 C7.89977334 74.4233368 1.94613158 79.09376663 -5.875 81.75 C-10.32988502 82.89166408 -14.74081949 82.94040265 -19.3125 82.9375 C-20.10221191 82.93959473 -20.89192383 82.94168945 -21.70556641 82.94384766 C-27.97847903 82.89708204 -33.88698192 82.1732375 -40.0546875 80.9921875 C-43.09147938 80.73141036 -44.35843656 81.10876297 -46.875 82.75 C-47.00373737 73.33786748 -46.67322348 64.12912587 -45.875 54.75 C-43.4 54.255 -43.4 54.255 -40.875 53.75 C-40.59527344 54.55824219 -40.31554687 55.36648437 -40.02734375 56.19921875 C-37.4004526 63.20144629 -35.53309186 67.17435808 -28.875 70.75 C-23.39116488 72.57794504 -17.18003079 72.6908289 -11.8125 70.5 C-8.56196196 67.56403016 -7.99195999 65.66897133 -7.4375 61.3125 C-8.01351915 56.62205834 -9.19867696 55.6901382 -12.875 52.75 C-16.25117428 51.29880867 -19.72388962 50.27355148 -23.25 49.25 C-33.20298646 46.3365908 -40.51525665 43.14346593 -45.76953125 33.69140625 C-48.48179924 26.47466493 -47.81561719 18.53540763 -45.375 11.3125 C-42.60668173 5.33253847 -38.02247801 1.39867896 -32.25 -1.625 C-21.2740569 -4.51340608 -10.70088509 -3.51372346 0 0 Z " fill="#CB0017" transform="translate(51.875,143.25)"/>
<path d="M0 0 C142.23 0 284.46 0 431 0 C431 1.98 431 3.96 431 6 C288.77 6 146.54 6 0 6 C0 4.02 0 2.04 0 0 Z " fill="#CB0017" transform="translate(5,129)"/>
<path d="M0 0 C8.58 0 17.16 0 26 0 C25.67 1.32 25.34 2.64 25 4 C24.34 4 23.68 4 23 4 C22.67 8.29 22.34 12.58 22 17 C26.95 17 31.9 17 37 17 C36.731875 15.06125 36.46375 13.1225 36.1875 11.125 C36.03667969 10.03445312 35.88585937 8.94390625 35.73046875 7.8203125 C35.25334259 4.68761154 35.25334259 4.68761154 32 3 C32 2.01 32 1.02 32 0 C40.91 0 49.82 0 59 0 C58.67 1.32 58.34 2.64 58 4 C57.34 4.33 56.68 4.66 56 5 C55.00706191 7.97881427 54.87880215 9.91487239 54.88647461 13.0222168 C54.88655014 14.04304855 54.88662567 15.06388031 54.88670349 16.11564636 C54.89186478 17.21572525 54.89702606 18.31580414 54.90234375 19.44921875 C54.9037587 20.5769722 54.90517365 21.70472565 54.90663147 22.86665344 C54.9122353 26.47362912 54.92478847 30.08054304 54.9375 33.6875 C54.94251451 36.13085848 54.9470775 38.57421793 54.95117188 41.01757812 C54.96220597 47.01173987 54.97894785 53.00586552 55 59 C56.32 59.33 57.64 59.66 59 60 C59 60.99 59 61.98 59 63 C50.09 63 41.18 63 32 63 C32 62.01 32 61.02 32 60 C32.99 59.34 33.98 58.68 35 58 C35.33792536 55.38322508 35.48886089 52.99063608 35.51171875 50.3671875 C35.52966995 49.61535187 35.54762115 48.86351624 35.56611633 48.08889771 C35.62035781 45.68432244 35.65415792 43.27994715 35.6875 40.875 C35.72066102 39.24606583 35.75514955 37.6171581 35.79101562 35.98828125 C35.87609162 31.99233154 35.94283578 27.99644254 36 24 C31.38 24 26.76 24 22 24 C22.06874423 28.80601932 22.15664272 33.61115742 22.26245117 38.41650391 C22.29574214 40.05182134 22.32376106 41.68725482 22.34643555 43.32275391 C22.37990628 45.67140243 22.43221436 48.01898337 22.48828125 50.3671875 C22.49467117 51.10057343 22.5010611 51.83395935 22.50764465 52.58956909 C22.53994543 54.87324756 22.53994543 54.87324756 23 58 C23.99 58.66 24.98 59.32 26 60 C26 60.99 26 61.98 26 63 C17.42 63 8.84 63 0 63 C1 59 1 59 3 56 C3.3097099 53.6920067 3.3097099 53.6920067 3.2746582 51.10131836 C3.28419022 50.10696274 3.29372223 49.11260712 3.30354309 48.08811951 C3.30263168 47.01618851 3.30172028 45.94425751 3.30078125 44.83984375 C3.30506638 43.73902969 3.3093515 42.63821564 3.31376648 41.50404358 C3.31951138 39.17644947 3.32000887 36.8488374 3.31567383 34.52124023 C3.31250938 30.94809621 3.3359874 27.37577625 3.36132812 23.80273438 C3.36360053 21.54427188 3.36430489 19.28580715 3.36328125 17.02734375 C3.372491 15.95338852 3.38170074 14.87943329 3.39118958 13.77293396 C3.38496078 12.7817305 3.37873199 11.79052704 3.37231445 10.76928711 C3.37294388 9.89453232 3.3735733 9.01977753 3.3742218 8.11851501 C3.25072861 7.41940506 3.12723541 6.7202951 3 6 C2.01 5.34 1.02 4.68 0 4 C0 2.68 0 1.36 0 0 Z " fill="#C80017" transform="translate(124,224)"/>
<path d="M0 0 C0.70729248 0.0012085 1.41458496 0.00241699 2.14331055 0.00366211 C7.23650309 0.04119272 12.24294741 0.37651798 17.30078125 1.00390625 C19.62531492 1.26761699 19.62531492 1.26761699 22.4375 0.125 C24.73362756 15.86987472 24.73362756 15.86987472 24.4375 23.125 C20.78058075 21.90602692 20.66751766 21.08183818 18.875 17.8125 C15.45228189 12.46076869 11.56892621 10.47531409 5.4375 9.125 C1.27695568 9.04649916 -0.02580249 9.68815319 -3.25 12.3125 C-10.08517606 20.62555197 -10.36338936 29.73568527 -9.5625 40.125 C-8.06957908 46.66464273 -5.74791802 52.74620256 -0.5625 57.125 C2.44960623 57.87549111 5.33909601 58.11149933 8.4375 58.125 C10.67163013 54.77380481 10.67597762 53.7072245 10.6328125 49.80078125 C10.62314453 48.25874023 10.62314453 48.25874023 10.61328125 46.68554688 C10.59652344 45.61369141 10.57976562 44.54183594 10.5625 43.4375 C10.55347656 42.35404297 10.54445313 41.27058594 10.53515625 40.15429688 C10.5115734 37.4776429 10.47866126 34.80143203 10.4375 32.125 C9.1175 31.465 7.7975 30.805 6.4375 30.125 C6.4375 29.135 6.4375 28.145 6.4375 27.125 C15.3475 27.125 24.2575 27.125 33.4375 27.125 C33.4375 28.115 33.4375 29.105 33.4375 30.125 C32.78773193 30.55095459 32.13796387 30.97690918 31.46850586 31.41577148 C29.14077079 33.00278319 29.14077079 33.00278319 28.93579102 36.00415039 C28.93857056 37.72106079 28.93857056 37.72106079 28.94140625 39.47265625 C28.94076172 40.71724609 28.94011719 41.96183594 28.93945312 43.24414062 C28.96942383 45.19610352 28.96942383 45.19610352 29 47.1875 C28.99291016 48.49267578 28.98582031 49.79785156 28.97851562 51.14257812 C28.97355834 56.15126163 28.97355834 56.15126163 29.4375 61.125 C30.4275 61.785 31.4175 62.445 32.4375 63.125 C32.4375 64.115 32.4375 65.105 32.4375 66.125 C27.02981529 66.19955448 21.62243452 66.25379227 16.21435547 66.28979492 C14.37738834 66.30481496 12.54045666 66.32523709 10.70361328 66.35131836 C8.05231946 66.38800202 5.40150268 66.40479438 2.75 66.41796875 C1.93821289 66.43345261 1.12642578 66.44893646 0.29003906 66.46488953 C-7.45985971 66.46714031 -14.16939792 64.46883916 -19.83666992 58.95678711 C-26.96732194 51.38834998 -27.3809135 43.28537452 -27.26928711 33.35913086 C-27.24999694 31.0621356 -27.28958888 28.77115635 -27.33398438 26.47460938 C-27.37624344 19.23794078 -27.39147152 13.06801244 -22.16430664 7.49780273 C-20.16905824 5.78780704 -18.29700417 4.35891461 -15.9375 3.1875 C-15.20273437 2.80722656 -14.46796875 2.42695313 -13.7109375 2.03515625 C-9.13628129 0.09716553 -4.92963817 -0.03184147 0 0 Z " fill="#CA0017" transform="translate(290.5625,220.875)"/>
<path d="M0 0 C2.53193757 0.27359086 2.53193757 0.27359086 5.3828125 -0.87890625 C6.0428125 6.38109375 6.7028125 13.64109375 7.3828125 21.12109375 C6.0628125 21.12109375 4.7428125 21.12109375 3.3828125 21.12109375 C3.08890625 20.32445312 3.08890625 20.32445312 2.7890625 19.51171875 C0.64284754 14.442211 -1.41600247 11.91024982 -6.51171875 9.73046875 C-9.68574731 8.81182598 -12.33275293 8.84739087 -15.6171875 9.12109375 C-15.9471875 12.42109375 -16.2771875 15.72109375 -16.6171875 19.12109375 C-13.70672815 20.32052133 -10.77871852 21.42438597 -7.8046875 22.453125 C-6.77988281 22.81567383 -6.77988281 22.81567383 -5.734375 23.18554688 C-4.32655908 23.68295785 -2.91504155 24.17001743 -1.5 24.64648438 C4.26750917 26.71952305 7.67555321 29.64851133 11.1953125 34.74609375 C13.3787016 40.9515154 13.50129672 47.43517464 10.7578125 53.49609375 C7.13043566 59.66767241 1.93213004 62.94454142 -4.6484375 65.40234375 C-13.29031491 67.49458775 -22.70260979 66.31515556 -31.4453125 65.2421875 C-33.79947954 64.977108 -33.79947954 64.977108 -36.6171875 66.12109375 C-37.2771875 57.21109375 -37.9371875 48.30109375 -38.6171875 39.12109375 C-37.6271875 39.12109375 -36.6371875 39.12109375 -35.6171875 39.12109375 C-35.24207031 39.9409375 -34.86695313 40.76078125 -34.48046875 41.60546875 C-33.96871094 42.683125 -33.45695312 43.76078125 -32.9296875 44.87109375 C-32.43082031 45.9384375 -31.93195313 47.00578125 -31.41796875 48.10546875 C-28.90112828 52.32022111 -26.26912536 54.5704478 -21.6171875 56.12109375 C-16.75538523 56.75840865 -13.63058857 56.84495166 -9.5546875 53.93359375 C-7.47103551 51.31349004 -7.47103551 51.31349004 -7.1171875 48.49609375 C-7.71329883 45.66456494 -8.43623302 44.96318714 -10.6171875 43.12109375 C-12.5392483 42.17178809 -12.5392483 42.17178809 -14.671875 41.47265625 C-15.45175781 41.1890625 -16.23164063 40.90546875 -17.03515625 40.61328125 C-18.66378425 40.03847137 -20.2939869 39.46810231 -21.92578125 38.90234375 C-28.22706836 36.5977544 -31.83741716 33.79074927 -35.6171875 28.12109375 C-37.2136369 21.47122181 -37.05151489 15.13116669 -33.6171875 9.12109375 C-24.19768698 -2.00515114 -13.38828329 -1.54480192 0 0 Z " fill="#CA0017" transform="translate(360.6171875,222.87890625)"/>
<path d="M0 0 C10.23 0 20.46 0 31 0 C30.67 1.98 30.34 3.96 30 6 C30.63092738 7.99925975 30.63092738 7.99925975 31.87109375 9.6484375 C32.48500977 10.56689453 32.48500977 10.56689453 33.11132812 11.50390625 C33.54896484 12.12136719 33.98660156 12.73882812 34.4375 13.375 C34.87126953 14.01566406 35.30503906 14.65632812 35.75195312 15.31640625 C36.81931141 16.88812065 37.90763461 18.44556192 39 20 C39 14.72 39 9.44 39 4 C38.01 4 37.02 4 36 4 C36 2.68 36 1.36 36 0 C41.61 0 47.22 0 53 0 C52.67 1.32 52.34 2.64 52 4 C51.34 4 50.68 4 50 4 C48.86821381 9.44950815 48.83858252 14.75048601 48.83203125 20.2890625 C48.82870285 21.26990814 48.82537445 22.25075378 48.82194519 23.26132202 C48.81689833 25.32720472 48.81453617 27.39309552 48.81469727 29.45898438 C48.81250262 32.62122901 48.79430085 35.78312912 48.77539062 38.9453125 C48.77245789 40.95572798 48.77047229 42.9661451 48.76953125 44.9765625 C48.76234573 45.9214151 48.75516022 46.8662677 48.74775696 47.8397522 C48.7523719 49.16165054 48.7523719 49.16165054 48.75708008 50.51025391 C48.75565506 51.2826944 48.75423004 52.05513489 48.75276184 52.85098267 C49.03560853 55.30951267 49.69530961 56.90522686 51 59 C51.99 59.495 51.99 59.495 53 60 C53 60.99 53 61.98 53 63 C47.39 63 41.78 63 36 63 C36 62.01 36 61.02 36 60 C36.66 59.67 37.32 59.34 38 59 C39.23713311 55.76442111 39.06430868 54.18591054 37.92578125 50.89453125 C35.75332866 46.07106779 32.55781837 42.00741372 29.375 37.8125 C28.79621094 37.03841797 28.21742188 36.26433594 27.62109375 35.46679688 C25.75412454 32.97273845 23.87692027 30.48657685 22 28 C20.34488328 25.79667518 18.69189771 23.59175535 17.0390625 21.38671875 C15.88591553 19.84890747 15.88591553 19.84890747 14.70947266 18.2800293 C14.14534668 17.52761963 13.5812207 16.77520996 13 16 C12.92598421 21.94479629 12.87146187 27.88932593 12.83520508 33.83447266 C12.82009474 35.85795766 12.79960563 37.8814098 12.77368164 39.90478516 C12.73739672 42.80900165 12.72029645 45.71278615 12.70703125 48.6171875 C12.69154739 49.52556366 12.67606354 50.43393982 12.66011047 51.36984253 C12.65988388 52.21056305 12.65965729 53.05128357 12.65942383 53.91748047 C12.65276199 54.65916473 12.64610016 55.400849 12.63923645 56.16500854 C12.75828842 56.77055573 12.87734039 57.37610291 13 58 C13.99 58.66 14.98 59.32 16 60 C16 60.99 16 61.98 16 63 C10.39 63 4.78 63 -1 63 C-1 62.01 -1 61.02 -1 60 C-0.01 59.34 0.98 58.68 2 58 C2.95707609 55.12877172 3.1367894 53.28489636 3.16113281 50.30078125 C3.17074036 49.34969482 3.1803479 48.3986084 3.19024658 47.41870117 C3.1966214 45.88113159 3.1966214 45.88113159 3.203125 44.3125 C3.20882507 43.25844971 3.21452515 42.20439941 3.22039795 41.1184082 C3.22984527 38.88917037 3.23638087 36.65991858 3.24023438 34.43066406 C3.24996178 31.01342637 3.28099694 27.59678457 3.3125 24.1796875 C3.3190279 22.01562858 3.32427921 19.85156535 3.328125 17.6875 C3.3404718 16.66245361 3.3528186 15.63740723 3.36553955 14.58129883 C3.36253845 13.6302124 3.35953735 12.67912598 3.35644531 11.69921875 C3.36009094 10.86221436 3.36373657 10.02520996 3.36749268 9.1628418 C2.91428384 6.49552599 1.88196501 5.85468114 0 4 C0 2.68 0 1.36 0 0 Z " fill="#CB0017" transform="translate(214,224)"/>
<path d="M0 0 C14.85 0 29.7 0 45 0 C48 18 48 18 48 23 C47.01 23 46.02 23 45 23 C44.65388672 22.20335937 44.65388672 22.20335937 44.30078125 21.390625 C42.19390541 16.82711528 40.38671664 13.7416979 36 11 C34.67556526 10.63290124 33.34276895 10.2930195 32 10 C31.94930589 16.76266277 31.91426892 23.52527655 31.89013672 30.28808594 C31.8800768 32.58888582 31.86642738 34.8896729 31.84912109 37.19042969 C31.82487265 40.4967769 31.81351677 43.80295512 31.8046875 47.109375 C31.79436493 48.13867126 31.78404236 49.16796753 31.77340698 50.22845459 C31.77325592 51.18914856 31.77310486 52.14984253 31.77294922 53.13964844 C31.76628738 54.40539703 31.76628738 54.40539703 31.75949097 55.69671631 C32.02568386 58.24596669 32.61921117 59.84837276 34 62 C36.05000871 62.80528889 36.05000871 62.80528889 38 63 C38 64.32 38 65.64 38 67 C27.77 67 17.54 67 7 67 C7 65.68 7 64.36 7 63 C9.475 62.505 9.475 62.505 12 62 C13.16227038 56.38304922 13.22067912 50.84407961 13.31640625 45.1328125 C13.33718735 44.09808807 13.35796844 43.06336365 13.37937927 41.99728394 C13.4445282 38.70658726 13.50359809 35.41581383 13.5625 32.125 C13.6057182 29.88801304 13.64933353 27.65103371 13.69335938 25.4140625 C13.80017389 19.94278842 13.90200337 14.47143874 14 9 C12.71173571 9.60935749 11.42730378 10.22682127 10.14453125 10.84765625 C9.42885986 11.19062744 8.71318848 11.53359863 7.97583008 11.88696289 C4.24614685 13.98799166 2.46451533 17.19603115 0.375 20.8125 C-0.07875 21.534375 -0.5325 22.25625 -1 23 C-1.66 23 -2.32 23 -3 23 C-2.88252836 21.22865133 -2.75547702 19.45793821 -2.625 17.6875 C-2.55539063 16.70136719 -2.48578125 15.71523437 -2.4140625 14.69921875 C-1.86172514 9.76465763 -0.88823366 4.88528514 0 0 Z " fill="#CA0017" transform="translate(77,220)"/>
<path d="M0 0 C8.91 0 17.82 0 27 0 C26.67 1.32 26.34 2.64 26 4 C25.34 4 24.68 4 24 4 C23.92413349 11.65374424 23.87147783 19.30739207 23.83520508 26.96142578 C23.82008892 29.56693139 23.79959568 32.17241144 23.77368164 34.77783203 C23.73742312 38.51601456 23.72030202 42.25386165 23.70703125 45.9921875 C23.69154739 47.16304901 23.67606354 48.33391052 23.66011047 49.54025269 C23.65988388 50.62122223 23.65965729 51.70219177 23.65942383 52.81591797 C23.65276199 53.77078094 23.64610016 54.72564392 23.63923645 55.70944214 C23.81781441 56.84326828 23.81781441 56.84326828 24 58 C24.99 58.66 25.98 59.32 27 60 C27 60.99 27 61.98 27 63 C18.09 63 9.18 63 0 63 C0 62.01 0 61.02 0 60 C0.99 59.34 1.98 58.68 3 58 C3.94355422 55.16933735 4.12647372 53.43157094 4.12939453 50.50024414 C4.13412277 49.1385183 4.13412277 49.1385183 4.13894653 47.74928284 C4.13591019 46.28204018 4.13591019 46.28204018 4.1328125 44.78515625 C4.13376923 43.77786972 4.13472595 42.77058319 4.13571167 41.73277283 C4.13639235 39.60187721 4.13454585 37.47097952 4.13037109 35.34008789 C4.12502686 32.07889133 4.13031701 28.81783286 4.13671875 25.55664062 C4.13605784 23.48697886 4.13477641 21.41731719 4.1328125 19.34765625 C4.13483673 18.37151871 4.13686096 17.39538116 4.13894653 16.3896637 C4.13579437 15.47869431 4.13264221 14.56772491 4.12939453 13.62915039 C4.12859894 12.82989639 4.12780334 12.0306424 4.12698364 11.20716858 C3.99748505 8.95628628 3.78359099 7.11715284 3 5 C2.01 4.34 1.02 3.68 0 3 C0 2.01 0 1.02 0 0 Z " fill="#C40017" transform="translate(185,224)"/>
<path d="M0 0 C24.75 0 49.5 0 75 0 C75 2.31 75 4.62 75 7 C50.25 7 25.5 7 0 7 C0 4.69 0 2.38 0 0 Z " fill="#CB0017" transform="translate(370,234)"/>
<path d="M0 0 C21.45 0 42.9 0 65 0 C65 2.31 65 4.62 65 7 C43.55 7 22.1 7 0 7 C0 4.69 0 2.38 0 0 Z " fill="#CB0017" transform="translate(5,234)"/>
</svg>
